<?xml version="1.0" encoding="utf-8"?>
<!-- Generator: Adobe Illustrator 25.0.1, SVG Export Plug-In . SVG Version: 6.00 Build 0)  -->
<svg version="1.1" xmlns="http://www.w3.org/2000/svg" xmlns:xlink="http://www.w3.org/1999/xlink" x="0px" y="0px"
	 viewBox="0 0 1920 1080" style="enable-background:new 0 0 1920 1080;" xml:space="preserve">
<style type="text/css">
	.st0{fill:none;stroke:#000000;stroke-linecap:round;stroke-miterlimit:10;}
	.st1{display:none;}
	.st2{display:inline;fill:none;stroke:#000000;stroke-miterlimit:10;}
	.st3{fill:none;stroke:#000000;stroke-miterlimit:10;}
	.st4{fill:none;stroke:#000000;stroke-linecap:round;stroke-linejoin:round;stroke-miterlimit:10;}
	.st5{display:inline;fill:none;stroke:#000000;stroke-linecap:round;stroke-linejoin:round;stroke-miterlimit:10;}
</style>
<g id="P0T19">
	<polygon class="st0" points="1102.23,626.82 1125.37,666.9 1080.11,676.52 	"/>
</g>
<g id="P0T18">
	<polygon class="st0" points="1080.11,676.52 1125.37,666.9 1120.53,712.92 	"/>
</g>
<g id="P0T17">
	<polygon class="st0" points="1125.37,666.9 1165.8,703.3 1120.53,712.92 	"/>
</g>
<g id="P0T16">
	<polygon class="st0" points="1165.8,703.3 1160.96,749.32 1120.53,712.92 	"/>
</g>
<g id="P0T15">
	<polygon class="st0" points="1165.8,703.3 1208.07,722.12 1160.96,749.32 	"/>
</g>
<g id="P0T14">
	<polygon class="st0" points="1212.91,676.1 1255.18,694.92 1208.07,722.12 	"/>
</g>
<g id="P0T13">
	<polygon class="st0" points="1212.91,676.1 1208.07,722.12 1165.8,703.3 	"/>
</g>
<g id="P0T12">
	<polygon class="st0" points="1170.63,657.28 1212.91,676.1 1165.8,703.3 	"/>
</g>
<g id="P0T11">
	<polygon class="st0" points="1170.63,657.28 1165.8,703.3 1125.37,666.9 	"/>
</g>
<g id="P0T10">
	<polygon class="st0" points="1147.5,617.2 1170.63,657.28 1125.37,666.9 	"/>
</g>
<g id="P0T9">
	<polygon class="st0" points="1102.23,626.82 1147.5,617.2 1125.37,666.9 	"/>
</g>
<g id="P0T8">
	<polygon class="st0" points="1124.36,577.13 1147.5,617.2 1102.23,626.82 	"/>
</g>
<g id="P0T7">
	<polygon class="st0" points="1124.36,577.13 1178.46,582.81 1147.5,617.2 	"/>
</g>
<g id="P0T6">
	<polyline class="st0" points="1147.5,617.2 1178.46,582.81 1201.6,622.89 1147.5,617.2 	"/>
</g>
<g id="P0T5">
	<polygon class="st0" points="1147.5,617.2 1201.6,622.89 1170.63,657.28 	"/>
</g>
<g id="P0T4">
	<polygon class="st0" points="1201.6,622.89 1212.91,676.1 1170.63,657.28 	"/>
</g>
<g id="P0T3">
	<polygon class="st0" points="1201.6,622.89 1243.87,641.71 1212.91,676.1 	"/>
</g>
<g id="P0T2">
	<polygon class="st0" points="1243.87,641.71 1255.18,694.92 1212.91,676.1 	"/>
</g>
<g id="P0T1">
	<polygon class="st0" points="1232.56,588.5 1243.87,641.71 1201.6,622.89 	"/>
</g>
<g id="P0T0">
	<polygon class="st0" points="1178.46,582.81 1232.56,588.5 1201.6,622.89 	"/>
</g>
<g id="H2T4" class="st1">
	<polygon class="st2" points="1272.99,552.1 1313.42,515.7 1324.73,568.91 	"/>
</g>
<g id="H2T3" class="st1">
	<polygon class="st2" points="1313.42,515.7 1365.15,532.51 1324.73,568.91 	"/>
</g>
<g id="H2T2" class="st1">
	<polygon class="st2" points="1365.15,532.51 1376.46,585.72 1324.73,568.91 	"/>
</g>
<g id="H2T1" class="st1">
	<polygon class="st2" points="1365.15,532.51 1416.89,549.32 1376.46,585.72 	"/>
</g>
<g id="H2T0" class="st1">
	<polygon class="st2" points="1376.46,585.72 1416.89,549.32 1428.2,602.53 	"/>
</g>
<g id="H2T5" class="st1">
	<polygon class="st2" points="1272.99,552.1 1284.3,605.31 1232.56,588.5 	"/>
</g>
<g id="H2T6" class="st1">
	<polygon class="st2" points="1272.99,552.1 1324.73,568.91 1284.3,605.31 	"/>
</g>
<g id="H2T7" class="st1">
	<polygon class="st2" points="1324.73,568.91 1336.04,622.12 1284.3,605.31 	"/>
</g>
<g id="H2T8" class="st1">
	<polygon class="st2" points="1324.73,568.91 1376.46,585.72 1336.04,622.12 	"/>
</g>
<g id="H2T9" class="st1">
	<polygon class="st2" points="1376.46,585.72 1387.77,638.93 1336.04,622.12 	"/>
</g>
<g id="H2T10" class="st1">
	<polygon class="st2" points="1376.46,585.72 1428.2,602.53 1387.77,638.93 	"/>
</g>
<g id="H2T11" class="st1">
	<polygon class="st2" points="1428.2,602.53 1439.51,655.74 1387.77,638.93 	"/>
</g>
<g id="H2T18" class="st1">
	<polygon class="st2" points="1232.56,588.5 1284.3,605.31 1243.87,641.71 	"/>
</g>
<g id="H2T17" class="st1">
	<polygon class="st2" points="1284.3,605.31 1295.61,658.52 1243.87,641.71 	"/>
</g>
<g id="H2T16" class="st1">
	<polygon class="st2" points="1284.3,605.31 1336.04,622.12 1295.61,658.52 	"/>
</g>
<g id="H2T15" class="st1">
	<polygon class="st2" points="1336.04,622.12 1347.35,675.33 1295.61,658.52 	"/>
</g>
<g id="H2T14" class="st1">
	<polyline class="st2" points="1336.04,622.12 1387.77,638.93 1347.35,675.33 1336.04,620.73 	"/>
</g>
<g id="H2T13" class="st1">
	<polygon class="st2" points="1387.77,638.93 1399.09,692.14 1347.35,675.33 	"/>
</g>
<g id="H2T12" class="st1">
	<polygon class="st2" points="1387.77,638.93 1439.51,655.74 1399.09,692.14 	"/>
</g>
<g id="H2T19">
	<polygon class="st3" points="1243.87,641.71 1295.61,658.52 1255.18,694.92 	"/>
</g>
<g id="H2T20">
	<polygon class="st3" points="1295.61,658.52 1306.92,711.73 1255.18,694.92 	"/>
</g>
<g id="H2T21">
	<polygon class="st3" points="1295.61,658.52 1347.35,675.33 1306.92,711.73 	"/>
</g>
<g id="H2T22">
	<polygon class="st3" points="1347.35,675.33 1358.66,728.54 1306.92,711.73 	"/>
</g>
<g id="H2T23">
	<polygon class="st3" points="1347.35,675.33 1399.09,692.14 1358.66,728.54 	"/>
</g>
<g id="H3T4">
	<polygon class="st3" points="1214.76,731.32 1255.18,694.92 1266.49,748.13 	"/>
</g>
<g id="H3T3">
	<polygon class="st3" points="1255.18,694.92 1306.92,711.73 1266.49,748.13 	"/>
</g>
<g id="H3T2">
	<polygon class="st3" points="1306.92,711.73 1318.23,764.94 1266.49,748.13 	"/>
</g>
<g id="H3T1">
	<polygon class="st3" points="1306.92,711.73 1358.66,728.54 1318.23,764.94 	"/>
</g>
<g id="H3T0">
	<polygon class="st3" points="1358.66,728.54 1369.97,781.75 1318.23,764.94 	"/>
</g>
<g id="H3T5">
	<polygon class="st3" points="1214.76,731.32 1226.07,784.53 1174.33,767.72 	"/>
</g>
<g id="H3T6">
	<polygon class="st3" points="1214.76,731.32 1266.49,748.13 1226.07,784.53 	"/>
</g>
<g id="H3T7">
	<polygon class="st3" points="1266.49,748.13 1277.8,801.34 1226.07,784.53 	"/>
</g>
<g id="H3T8">
	<polygon class="st3" points="1266.49,748.13 1318.23,764.94 1277.8,801.34 	"/>
</g>
<g id="H3T9">
	<polygon class="st3" points="1318.23,764.94 1329.54,818.15 1277.8,801.34 	"/>
</g>
<g id="H3T10">
	<polygon class="st3" points="1318.23,764.94 1369.97,781.75 1329.54,818.15 	"/>
</g>
<g id="H3T11">
	<polygon class="st3" points="1369.97,781.75 1381.28,834.96 1329.54,818.15 	"/>
</g>
<g id="H3T18">
	<polygon class="st3" points="1174.33,767.72 1226.07,784.53 1185.64,820.93 	"/>
</g>
<g id="H3T17">
	<polygon class="st3" points="1226.07,784.53 1237.38,837.74 1185.64,820.93 	"/>
</g>
<g id="H3T16">
	<polygon class="st3" points="1226.07,784.53 1277.8,801.34 1237.38,837.74 	"/>
</g>
<g id="H3T15">
	<polygon class="st3" points="1277.8,801.34 1289.11,854.55 1237.38,837.74 	"/>
</g>
<g id="H3T14">
	<polygon class="st3" points="1277.8,801.34 1329.54,818.15 1289.11,854.55 	"/>
</g>
<g id="H3T13">
	<polygon class="st3" points="1329.54,818.15 1340.85,871.37 1289.11,854.55 	"/>
</g>
<g id="H3T12">
	<polygon class="st3" points="1329.54,818.15 1381.28,834.96 1340.85,871.37 	"/>
</g>
<g id="H3T19">
	<polygon class="st3" points="1185.64,820.93 1237.38,837.74 1196.95,874.14 	"/>
</g>
<g id="H3T20">
	<polygon class="st3" points="1237.38,837.74 1248.69,890.96 1196.95,874.14 	"/>
</g>
<g id="H3T21">
	<polygon class="st3" points="1237.38,837.74 1289.11,854.55 1248.69,890.96 	"/>
</g>
<g id="H3T22">
	<polygon class="st3" points="1289.11,854.55 1300.42,907.77 1248.69,890.96 	"/>
</g>
<g id="H3T23">
	<polygon class="st3" points="1289.11,854.55 1340.85,871.37 1300.42,907.77 	"/>
</g>
<g id="H0T23">
	<polygon class="st3" points="1172.08,488.5 1172.08,542.9 1124.97,515.7 	"/>
</g>
<g id="H0T22">
	<polygon class="st3" points="1124.97,461.3 1172.08,488.5 1124.97,515.7 	"/>
</g>
<g id="H0T21">
	<polygon class="st3" points="1172.08,434.1 1172.08,488.5 1124.97,461.3 	"/>
</g>
<g id="H0T20">
	<polygon class="st3" points="1124.97,406.9 1172.08,434.1 1124.97,461.3 	"/>
</g>
<g id="H0T19">
	<polygon class="st3" points="1172.08,379.7 1172.08,434.1 1124.97,406.9 	"/>
</g>
<g id="H0T18">
	<polygon class="st3" points="1172.08,379.7 1219.19,352.5 1219.19,406.9 	"/>
</g>
<g id="H0T17">
	<polygon class="st3" points="1172.08,379.7 1219.19,406.9 1172.08,434.1 	"/>
</g>
<g id="H0T16">
	<polygon class="st3" points="1219.19,406.9 1219.19,461.3 1172.08,434.1 	"/>
</g>
<g id="H0T15">
	<polygon class="st3" points="1172.08,434.1 1219.19,461.3 1172.08,488.5 	"/>
</g>
<g id="H0T14">
	<polygon class="st3" points="1219.19,461.3 1219.19,515.7 1172.08,488.5 	"/>
</g>
<g id="H0T13">
	<polygon class="st3" points="1172.08,488.5 1219.19,515.7 1172.08,542.9 	"/>
</g>
<g id="H0T12">
	<polygon class="st3" points="1219.19,515.7 1219.19,570.1 1172.08,542.9 	"/>
</g>
<g id="H0T11">
	<polygon class="st3" points="1219.19,515.7 1266.3,542.9 1219.19,570.1 	"/>
</g>
<g id="H0T10">
	<polygon class="st3" points="1266.3,488.5 1266.3,542.9 1219.19,515.7 	"/>
</g>
<g id="H0T9">
	<polygon class="st3" points="1219.19,461.3 1266.3,488.5 1219.19,515.7 	"/>
</g>
<g id="H0T8">
	<polygon class="st3" points="1266.3,434.1 1266.3,488.5 1219.19,461.3 	"/>
</g>
<g id="H0T7">
	<polygon class="st3" points="1219.19,406.9 1266.3,434.1 1219.19,461.3 	"/>
</g>
<g id="H0T6">
	<polygon class="st3" points="1266.3,379.7 1266.3,434.1 1219.19,406.9 	"/>
</g>
<g id="H0T5">
	<polygon class="st3" points="1219.19,352.5 1266.3,379.7 1219.19,406.9 	"/>
</g>
<g id="H0T4">
	<polygon class="st3" points="1266.3,379.7 1313.42,406.9 1266.3,434.1 	"/>
</g>
<g id="H0T3">
	<polygon class="st3" points="1313.42,406.9 1313.42,461.3 1266.3,434.1 	"/>
</g>
<g id="H0T2">
	<polygon class="st3" points="1266.3,434.1 1313.42,461.3 1266.3,488.5 	"/>
</g>
<g id="H0T1">
	<polygon class="st3" points="1266.3,488.5 1313.42,461.3 1313.42,515.7 	"/>
</g>
<g id="H0T0">
	<polygon class="st3" points="1266.3,488.5 1313.42,515.7 1266.3,542.9 	"/>
</g>
<g id="H1T0">
	<polygon class="st4" points="1077.86,379.7 1124.97,406.9 1077.86,434.1 	"/>
</g>
<g id="Layer_366">
	<polygon class="st4" points="1030.75,352.5 1077.86,379.7 1030.75,406.9 	"/>
</g>
<g id="Layer_367">
	<polygon class="st4" points="1077.86,379.7 1077.86,434.1 1030.75,406.9 	"/>
</g>
<g id="Layer_370">
	<polygon class="st4" points="1030.75,352.5 1030.75,406.9 983.63,379.7 	"/>
</g>
<g id="Layer_371">
	<polygon class="st4" points="936.52,406.9 983.63,379.7 983.63,434.1 	"/>
</g>
<g id="Layer_372">
	<polygon class="st4" points="983.63,379.7 1030.75,406.9 983.63,434.1 	"/>
</g>
<g id="Layer_373">
	<polygon class="st4" points="1030.75,406.9 1030.75,461.3 983.63,434.1 	"/>
</g>
<g id="Layer_374">
	<polygon class="st4" points="1030.75,406.9 1077.86,434.1 1030.75,461.3 	"/>
</g>
<g id="Layer_378">
	<polygon class="st4" points="936.52,406.9 983.63,434.1 936.52,461.3 	"/>
</g>
<g id="Layer_379">
	<polygon class="st4" points="983.63,434.1 983.63,488.5 936.52,461.3 	"/>
</g>
<g id="Layer_380">
	<polygon class="st4" points="983.63,434.1 1030.75,461.3 983.63,488.5 	"/>
</g>
<g id="Layer_385">
	<polygon class="st4" points="936.52,461.3 983.63,488.5 936.52,515.7 	"/>
</g>
<g id="H1T11" class="st1">
	<polygon class="st5" points="983.63,488.5 983.63,542.9 936.52,515.7 	"/>
</g>
<g id="H1T10" class="st1">
	<polygon class="st5" points="983.63,488.5 1030.75,515.7 983.63,542.9 	"/>
</g>
<g id="H1T9" class="st1">
	<polygon class="st5" points="1030.75,461.64 1030.75,515.7 983.63,488.5 	"/>
</g>
<g id="H1T8" class="st1">
	<polygon class="st5" points="1030.75,461.64 1077.86,488.5 1030.75,515.7 	"/>
</g>
<g id="H1T7" class="st1">
	<polygon class="st5" points="1077.86,434.1 1077.86,488.5 1030.75,461.3 	"/>
</g>
<g id="H1T6" class="st1">
	<polygon class="st5" points="1077.86,434.1 1124.97,461.3 1077.86,488.5 	"/>
</g>
<g id="H1T5" class="st1">
	<polygon class="st5" points="1124.97,406.9 1124.97,461.3 1077.86,434.1 	"/>
</g>
<g id="H1T4" class="st1">
	<polygon class="st5" points="1124.97,461.3 1124.97,515.7 1077.86,488.5 	"/>
</g>
<g id="H1T3" class="st1">
	<polygon class="st5" points="1077.86,488.5 1124.97,515.7 1077.86,542.9 	"/>
</g>
<g id="H1T2" class="st1">
	<polygon class="st5" points="1077.86,488.5 1077.86,542.9 1030.75,515.7 	"/>
</g>
<g id="H1T1" class="st1">
	<path class="st5" d="M1030.75,515.7c0.98,0.57,47.11,27.2,47.11,27.2l-47.11,27.2V515.7z"/>
</g>
<g id="H1T0_1_" class="st1">
	<path class="st5" d="M1030.75,515.7c0,1.99,0,54.4,0,54.4l-47.11-27.2L1030.75,515.7z"/>
</g>
<g id="Layer_452">
	<polygon class="st3" points="734.71,751.7 788.81,746.01 765.67,786.09 	"/>
</g>
<g id="Layer_453">
	<polygon class="st3" points="788.81,746.01 819.77,780.4 765.67,786.09 	"/>
</g>
<g id="Layer_454">
	<polygon class="st3" points="788.81,746.01 842.91,740.33 819.77,780.4 	"/>
</g>
<g id="Layer_455">
	<polygon class="st3" points="842.91,740.33 865.04,790.02 819.77,780.4 	"/>
</g>
<g id="Layer_456">
	<polygon class="st3" points="819.77,780.4 865.04,790.02 841.9,830.1 	"/>
</g>
<g id="Layer_457">
	<polygon class="st3" points="865.04,790.02 887.16,839.72 841.9,830.1 	"/>
</g>
<g id="Layer_458">
	<polygon class="st3" points="841.9,830.1 887.16,839.72 846.74,876.12 	"/>
</g>
<g id="Layer_459">
	<polygon class="st3" points="801.47,866.5 841.9,830.1 846.74,876.12 	"/>
</g>
<g id="Layer_460">
	<polygon class="st3" points="801.47,866.5 846.74,876.12 806.31,912.52 	"/>
</g>
<g id="Layer_461">
	<polygon class="st3" points="801.47,866.5 806.31,912.52 759.2,885.32 	"/>
</g>
<g id="Layer_462">
	<polygon class="st3" points="754.36,839.3 801.47,866.5 759.2,885.32 	"/>
</g>
<g id="Layer_463">
	<polygon class="st3" points="754.36,839.3 759.2,885.32 712.09,858.12 	"/>
</g>
<g id="Layer_464">
	<polygon class="st3" points="723.4,804.91 754.36,839.3 712.09,858.12 	"/>
</g>
<g id="Layer_466">
	<polygon class="st3" points="734.71,751.7 765.67,786.09 723.4,804.91 	"/>
</g>
<g id="Layer_465">
	<polygon class="st3" points="723.4,804.91 765.67,786.09 754.36,839.3 	"/>
</g>
<g id="Layer_467">
	<polygon class="st3" points="765.67,786.09 819.77,780.4 796.64,820.48 	"/>
</g>
<g id="Layer_470">
	<polygon class="st3" points="796.64,820.48 801.47,866.5 754.36,839.3 	"/>
</g>
<g id="new">
	<polyline class="st3" points="796.64,820.48 754.36,839.3 765.67,786.09 796.64,820.48 	"/>
</g>
<g id="Layer_468">
	<polygon class="st3" points="819.77,780.4 841.9,830.1 796.64,820.48 	"/>
</g>
<g id="Layer_469">
	<polygon class="st3" points="796.64,820.48 841.9,830.1 801.47,866.5 	"/>
</g>
<g id="Layer_560">
	<polygon class="st3" points="748.08,515.7 795.19,542.9 748.08,570.1 	"/>
</g>
<g id="Layer_561">
	<polygon class="st3" points="795.19,542.9 795.19,597.3 748.08,570.1 	"/>
</g>
<g id="Layer_562">
	<polygon class="st3" points="795.19,542.9 842.3,570.1 795.19,597.3 	"/>
</g>
<g id="Layer_563">
	<polygon class="st3" points="842.3,570.1 842.3,624.5 795.19,597.3 	"/>
</g>
<g id="Layer_564">
	<polygon class="st3" points="700.96,542.9 748.08,515.7 748.08,570.1 	"/>
</g>
<g id="Layer_565">
	<polygon class="st3" points="795.19,597.3 842.3,624.5 795.19,651.7 	"/>
</g>
<g id="Layer_566">
	<polygon class="st3" points="653.85,570.1 700.96,542.9 700.96,597.3 	"/>
</g>
<g id="Layer_567">
	<polygon class="st3" points="700.96,542.9 748.08,570.1 700.96,597.3 	"/>
</g>
<g id="Layer_568">
	<polygon class="st3" points="748.08,570.1 748.08,624.5 700.96,597.3 	"/>
</g>
<g id="Layer_569">
	<polygon class="st3" points="748.08,570.1 795.19,597.3 748.08,624.5 	"/>
</g>
<g id="Layer_570">
	<polygon class="st3" points="748.08,624.5 795.19,597.3 795.19,651.7 	"/>
</g>
<g id="Layer_571">
	<polygon class="st3" points="795.19,651.7 842.3,624.5 842.3,678.9 	"/>
</g>
<g id="Layer_572">
	<polygon class="st3" points="653.85,570.1 700.96,597.3 653.85,624.5 	"/>
</g>
<g id="Layer_573">
	<polygon class="st3" points="700.96,597.3 700.96,651.7 653.85,624.5 	"/>
</g>
<g id="Layer_574">
	<polygon class="st3" points="748.08,624.5 700.96,651.7 700.96,597.3 	"/>
</g>
<g id="Layer_575">
	<polygon class="st3" points="748.08,624.5 748.08,678.9 700.96,651.7 	"/>
</g>
<g id="Layer_576">
	<polygon class="st3" points="748.08,624.5 795.19,651.7 748.08,678.9 	"/>
</g>
<g id="Layer_577">
	<polygon class="st3" points="795.19,651.7 795.19,706.1 748.08,678.9 	"/>
</g>
<g id="Layer_578">
	<polygon class="st3" points="795.19,651.7 842.3,678.9 795.19,706.1 	"/>
</g>
<g id="Layer_579">
	<polygon class="st3" points="653.85,624.5 700.96,651.7 653.85,678.9 	"/>
</g>
<g id="Layer_580">
	<polygon class="st3" points="700.96,651.7 700.96,706.1 653.85,678.9 	"/>
</g>
<g id="Layer_581">
	<polygon class="st3" points="700.96,651.7 748.08,678.9 700.96,706.1 	"/>
</g>
<g id="Layer_582">
	<polygon class="st3" points="748.08,678.9 748.08,733.3 700.96,706.1 	"/>
</g>
<g id="Layer_583">
	<polygon class="st3" points="748.08,678.9 795.19,706.1 748.08,733.3 	"/>
</g>
<g id="Layer_584">
	<polygon class="st3" points="936.52,515.7 983.63,542.9 936.52,570.1 	"/>
</g>
<g id="Layer_585">
	<polygon class="st3" points="983.63,542.9 983.63,597.3 936.52,570.1 	"/>
</g>
<g id="Layer_586">
	<polygon class="st3" points="983.63,542.9 1030.75,570.1 983.63,597.3 	"/>
</g>
<g id="Layer_587">
	<polygon class="st3" points="983.63,597.3 1030.75,570.1 1030.75,624.5 	"/>
</g>
<g id="Layer_588">
	<polygon class="st3" points="889.41,542.9 936.52,515.7 936.52,570.1 	"/>
</g>
<g id="Layer_589">
	<polygon class="st3" points="842.3,570.1 889.41,542.9 889.41,597.3 	"/>
</g>
<g id="Layer_590">
	<polygon class="st3" points="936.52,570.1 889.41,597.3 889.41,542.9 	"/>
</g>
<g id="Layer_591">
	<polygon class="st3" points="936.52,570.1 936.52,624.5 889.41,597.3 	"/>
</g>
<g id="Layer_592">
	<polygon class="st3" points="936.52,570.1 983.63,597.3 936.52,624.5 	"/>
</g>
<g id="Layer_593">
	<polygon class="st3" points="983.63,597.3 983.63,651.7 936.52,624.5 	"/>
</g>
<g id="Layer_594">
	<polygon class="st3" points="983.63,597.3 1030.75,624.5 983.63,651.7 	"/>
</g>
<g id="Layer_595">
	<polygon class="st3" points="1030.75,624.5 1030.75,678.9 983.63,651.7 	"/>
</g>
<g id="Layer_596">
	<polygon class="st3" points="842.3,570.1 889.41,597.3 842.3,624.5 	"/>
</g>
<g id="Layer_597">
	<polygon class="st3" points="889.41,597.3 889.41,651.7 842.3,624.5 	"/>
</g>
<g id="Layer_598">
	<polygon class="st3" points="889.41,597.3 936.52,624.5 889.41,651.7 	"/>
</g>
<g id="Layer_599">
	<polygon class="st3" points="936.52,624.5 936.52,678.9 889.41,651.7 	"/>
</g>
<g id="Layer_600">
	<polygon class="st3" points="936.52,624.5 983.63,651.7 936.52,678.9 	"/>
</g>
<g id="Layer_601">
	<polygon class="st3" points="983.63,651.7 983.63,706.1 936.52,678.9 	"/>
</g>
<g id="Layer_602">
	<polygon class="st3" points="983.63,651.7 1030.75,678.9 983.63,706.1 	"/>
</g>
<g id="Layer_603">
	<polygon class="st3" points="842.3,624.5 889.41,651.7 842.3,678.9 	"/>
</g>
<g id="Layer_604">
	<polygon class="st3" points="889.41,651.7 889.41,706.1 842.3,678.9 	"/>
</g>
<g id="Layer_605">
	<polygon class="st3" points="889.41,651.7 936.52,678.9 889.41,706.1 	"/>
</g>
<g id="Layer_606">
	<polygon class="st3" points="936.52,678.9 936.52,733.3 889.41,706.1 	"/>
</g>
<g id="Layer_607">
	<polygon class="st3" points="936.52,678.9 983.63,706.1 936.52,733.3 	"/>
</g>
<g id="Layer_608">
	<path class="st3" d="M550.38,712.52l40.43,36.4c0,0-52.71,17.13-51.74,16.81C540.04,765.41,550.38,712.52,550.38,712.52z"/>
</g>
<g id="Layer_609">
	<polygon class="st3" points="550.38,712.52 602.12,695.71 590.81,748.92 	"/>
</g>
<g id="Layer_610">
	<polygon class="st3" points="602.12,695.71 642.54,732.11 590.81,748.92 	"/>
</g>
<g id="Layer_611">
	<polygon class="st3" points="602.12,695.71 653.85,678.9 642.54,732.11 	"/>
</g>
<g id="Layer_612">
	<polygon class="st3" points="653.85,678.9 694.28,715.3 642.54,732.11 	"/>
</g>
<g id="Layer_613">
	<polygon class="st3" points="539.07,765.73 579.49,802.13 527.76,818.94 	"/>
</g>
<g id="Layer_614">
	<polyline class="st3" points="539.07,765.73 590.81,748.92 579.49,802.13 	"/>
</g>
<g id="Layer_615">
	<polygon class="st3" points="590.81,748.92 631.23,785.32 579.49,802.13 	"/>
</g>
<g id="Layer_616">
	<polygon class="st3" points="590.81,748.92 642.54,732.11 631.23,785.32 	"/>
</g>
<g id="Layer_617">
	<polygon class="st3" points="642.54,732.11 682.97,768.51 631.23,785.32 	"/>
</g>
<g id="Layer_618">
	<polygon class="st3" points="642.54,732.11 694.28,715.3 682.97,768.51 	"/>
</g>
<g id="Layer_619">
	<polygon class="st3" points="694.28,715.3 734.71,751.7 682.97,768.51 	"/>
</g>
<g id="Layer_620">
	<polygon class="st3" points="527.76,818.94 579.49,802.13 568.18,855.34 	"/>
</g>
<g id="Layer_621">
	<polygon class="st3" points="579.49,802.13 619.92,838.53 568.18,855.34 	"/>
</g>
<g id="Layer_622">
	<polygon class="st3" points="579.49,802.13 631.23,785.32 619.92,838.53 	"/>
</g>
<g id="Layer_623">
	<polygon class="st3" points="631.23,785.32 671.66,821.72 619.92,838.53 	"/>
</g>
<g id="Layer_624">
	<polygon class="st3" points="631.23,785.32 682.97,768.51 671.66,821.72 	"/>
</g>
<g id="Layer_625">
	<polygon class="st3" points="682.97,768.51 723.4,804.91 671.66,821.72 	"/>
</g>
<g id="Layer_626">
	<polygon class="st3" points="682.97,768.51 734.71,751.7 723.4,804.91 	"/>
</g>
<g id="Layer_627">
	<polygon class="st3" points="568.18,855.34 619.92,838.53 608.61,891.74 	"/>
</g>
<g id="Layer_628">
	<polygon class="st3" points="619.92,838.53 660.35,874.93 608.61,891.74 	"/>
</g>
<g id="Layer_629">
	<polygon class="st3" points="619.92,838.53 671.66,821.72 660.35,874.93 	"/>
</g>
<g id="Layer_630">
	<polygon class="st3" points="671.66,821.72 712.09,858.12 660.35,874.93 	"/>
</g>
<g id="Layer_631">
	<polygon class="st3" points="671.66,821.72 723.4,804.91 712.09,858.12 	"/>
</g>
<g id="Layer_632">
	<polygon class="st3" points="608.61,891.74 660.35,874.93 649.04,928.14 	"/>
</g>
<g id="Layer_633">
	<polygon class="st3" points="660.35,874.93 700.78,911.33 649.04,928.14 	"/>
</g>
<g id="Layer_634">
	<polygon class="st3" points="660.35,874.93 712.09,858.12 700.78,911.33 	"/>
</g>
<g id="Layer_635">
	<polygon class="st3" points="712.09,858.12 752.51,894.52 700.78,911.33 	"/>
</g>
<g id="Layer_636">
	<polygon class="st3" points="608.61,891.74 649.04,928.14 597.3,944.95 	"/>
</g>
<g id="Layer_637">
	<polygon class="st3" points="597.3,944.95 637.73,981.35 585.99,998.16 	"/>
</g>
<g id="Layer_638">
	<polygon class="st3" points="597.3,944.95 649.04,928.14 637.73,981.35 	"/>
</g>
<g id="Layer_639">
	<polygon class="st3" points="649.04,928.14 689.47,964.54 637.73,981.35 	"/>
</g>
<g id="Layer_640">
	<polygon class="st3" points="649.04,928.14 700.78,911.33 689.47,964.54 	"/>
</g>
<g id="Layer_641">
	<polygon class="st3" points="700.78,911.33 741.2,947.73 689.47,964.54 	"/>
</g>
<g id="Layer_642">
	<polygon class="st3" points="700.78,911.33 752.51,894.52 741.2,947.73 	"/>
</g>
<g id="Layer_643">
	<polygon class="st3" points="752.51,894.52 792.94,930.92 741.2,947.73 	"/>
</g>
<g id="Layer_644">
	<polygon class="st3" points="585.99,998.16 637.73,981.35 626.42,1034.56 	"/>
</g>
<g id="Layer_645">
	<polygon class="st3" points="637.73,981.35 678.16,1017.75 626.42,1034.56 	"/>
</g>
<g id="Layer_646">
	<polygon class="st3" points="637.73,981.35 689.47,964.54 678.16,1017.75 	"/>
</g>
<g id="Layer_647">
	<polygon class="st3" points="689.47,964.54 729.89,1000.94 678.16,1017.75 	"/>
</g>
<g id="Layer_648">
	<polygon class="st3" points="689.47,964.54 741.2,947.73 729.89,1000.94 	"/>
</g>
<g id="Layer_649">
	<polygon class="st3" points="741.2,947.73 781.63,984.13 729.89,1000.94 	"/>
</g>
<g id="Layer_650">
	<polygon class="st3" points="741.2,947.73 792.94,930.92 781.63,984.13 	"/>
</g>
<g id="Layer_651">
	<polygon class="st3" points="626.42,1034.56 678.16,1017.75 666.84,1070.97 	"/>
</g>
<g id="Layer_652">
	<polygon class="st3" points="678.16,1017.75 718.58,1054.15 666.84,1070.97 	"/>
</g>
<g id="Layer_653">
	<polygon class="st3" points="678.16,1017.75 729.89,1000.94 718.58,1054.15 	"/>
</g>
<g id="Layer_654">
	<polygon class="st3" points="729.89,1000.94 770.32,1037.34 718.58,1054.15 	"/>
</g>
<g id="Layer_655">
	<polygon class="st3" points="729.89,1000.94 781.63,984.13 770.32,1037.34 	"/>
</g>
</svg>
